HIERARCHY
ROOT joint_Root
{
	OFFSET 0.0 0.0 0.0
	CHANNELS 6 Xposition Yposition Zposition Zrotation Xrotation Yrotation 
	JOINT Hips
	{
		OFFSET -0.726466 93.3139 -2.00062
		CHANNELS 6 Xposition Yposition Zposition Zrotation Xrotation Yrotation 
		JOINT Spine
		{
			OFFSET 15.7357 0.0 0.0
			CHANNELS 6 Xposition Yposition Zposition Zrotation Xrotation Yrotation 
			JOINT Chest
			{
				OFFSET 8.98455 -0.406207 0.0
				CHANNELS 6 Xposition Yposition Zposition Zrotation Xrotation Yrotation 
				JOINT Neck
				{
					OFFSET 16.3773 0.0 0.0
					CHANNELS 6 Xposition Yposition Zposition Zrotation Xrotation Yrotation 
					JOINT Head
					{
						OFFSET 6.45672 0.0 0.0
						CHANNELS 6 Xposition Yposition Zposition Zrotation Xrotation Yrotation 
						End Site
						{
							OFFSET 0.0 0.0 0.0
						}
					}
				}
				JOINT Shoulder_L
				{
					OFFSET 12.9942 -0.242716 4.98039
					CHANNELS 6 Xposition Yposition Zposition Zrotation Xrotation Yrotation 
					JOINT UpperArm_L
					{
						OFFSET 5.34809 0.0 0.0
						CHANNELS 6 Xposition Yposition Zposition Zrotation Xrotation Yrotation 
						JOINT LowerArm_L
						{
							OFFSET 24.3286 1.87007e-05 0.0
							CHANNELS 6 Xposition Yposition Zposition Zrotation Xrotation Yrotation 
							JOINT Hand_L
							{
								OFFSET 22.2916 0.0 0.0
								CHANNELS 6 Xposition Yposition Zposition Zrotation Xrotation Yrotation 
								End Site
								{
									OFFSET 0.0 0.0 0.0
								}
							}
						}
					}
				}
				JOINT Shoulder_R
				{
					OFFSET 12.9945 -0.242716 -4.98039
					CHANNELS 6 Xposition Yposition Zposition Zrotation Xrotation Yrotation 
					JOINT UpperArm_R
					{
						OFFSET -5.34813 0.0 0.0
						CHANNELS 6 Xposition Yposition Zposition Zrotation Xrotation Yrotation 
						JOINT LowerArm_R
						{
							OFFSET -24.3289 0.000322201 0.0
							CHANNELS 6 Xposition Yposition Zposition Zrotation Xrotation Yrotation 
							JOINT Hand_R
							{
								OFFSET -22.2915 -0.000108084 0.0
								CHANNELS 6 Xposition Yposition Zposition Zrotation Xrotation Yrotation 
								End Site
								{
									OFFSET 0.0 0.0 0.0
								}
							}
						}
					}
				}
			}
		}
		JOINT UpperLeg_L
		{
			OFFSET -2.19248 -6.46944 0.0
			CHANNELS 6 Xposition Yposition Zposition Zrotation Xrotation Yrotation 
			JOINT LowerLeg_L
			{
				OFFSET 39.0811 0.0 -1.23785e-05
				CHANNELS 6 Xposition Yposition Zposition Zrotation Xrotation Yrotation 
				JOINT Foot_L
				{
					OFFSET 40.9854 0.0 -1.26872e-05
					CHANNELS 6 Xposition Yposition Zposition Zrotation Xrotation Yrotation 
					JOINT Toes_L
					{
						OFFSET 11.7543 0.0 0.0
						CHANNELS 6 Xposition Yposition Zposition Zrotation Xrotation Yrotation 
						End Site
						{
							OFFSET 0.0 0.0 0.0
						}
					}
				}
			}
		}
		JOINT UpperLeg_R
		{
			OFFSET -2.19251 6.46944 0.0
			CHANNELS 6 Xposition Yposition Zposition Zrotation Xrotation Yrotation 
			JOINT LowerLeg_R
			{
				OFFSET -39.0811 -0.00228153 -0.0401928
				CHANNELS 6 Xposition Yposition Zposition Zrotation Xrotation Yrotation 
				JOINT Foot_R
				{
					OFFSET -40.9854 0.0 0.0
					CHANNELS 6 Xposition Yposition Zposition Zrotation Xrotation Yrotation 
					JOINT Toes_R
					{
						OFFSET -11.7543 0.0 0.0
						CHANNELS 6 Xposition Yposition Zposition Zrotation Xrotation Yrotation 
						End Site
						{
							OFFSET 0.0 0.0 0.0
						}
					}
				}
			}
		}
	}
}
MOTION
Frames:	4
Frame Time:	0.0333333
0.000000 0.000000 0.000000 0.000000 0.000000 -0.000000 -0.809476 92.180000 0.164460 88.117000 0.253964 5.065460 15.735700 0.000005 -0.000001 84.842200 85.104800 -84.495100 8.984550 -0.406207 -0.000000 1.987830 -0.897072 0.709162 16.377300 -0.000001 -0.000001 2.612040 -2.545170 0.128522 6.456720 -0.000001 -0.000000 7.149760 -3.172140 -0.235120 12.994200 -0.242716 4.980390 -89.614600 -1.187370 -72.014600 5.348090 -0.000007 -0.000001 -67.214900 39.650400 -16.569500 24.328600 0.000019 0.000005 1.758860 4.173630 -22.875200 22.291600 -0.000001 0.000005 6.731210 5.438570 -4.233560 12.994500 -0.242716 -4.980390 88.563400 4.777360 -73.241700 -5.348130 -0.000001 -0.000004 -63.755700 40.581100 -18.122000 -24.328900 0.000322 -0.000009 2.003190 5.755060 -19.238600 -22.291500 -0.000108 -0.000004 8.380780 5.356980 -1.589340 -2.192480 -6.469440 -0.000000 -175.064000 -7.867010 -1.543700 39.081100 -0.000007 -0.000012 -0.116244 0.268923 23.376800 40.985400 -0.000006 -0.000013 -0.227946 4.153550 -66.917900 11.754300 -0.000000 0.000003 -0.000060 -0.000667 -16.603400 -2.192510 6.469440 -0.000001 178.972000 16.339900 -178.175000 -39.081100 -0.002282 -0.040193 -0.065452 0.195060 19.421600 -40.985400 0.000008 0.000006 2.461700 8.223380 -66.380300 -11.754300 -0.000006 -0.000006 -0.008032 -0.088292 -20.168400
0.000000 0.000000 0.000000 0.000000 0.000000 -0.000000 -0.750136 92.185400 0.102755 88.125400 0.112694 5.121150 15.735700 0.000005 -0.000001 85.320500 85.076100 -84.991300 8.984550 -0.406207 -0.000000 2.051610 -0.819273 0.672446 16.377300 -0.000001 -0.000001 2.706380 -2.619510 0.160373 6.456720 -0.000001 -0.000000 6.861210 -3.222510 0.002367 12.994200 -0.242716 4.980390 -89.567100 -1.324270 -71.896800 5.348090 -0.000007 -0.000001 -65.500400 36.640100 -18.721300 24.328600 0.000019 0.000005 2.495540 5.957010 -22.779700 22.291600 -0.000001 0.000005 6.516150 5.409850 -3.257930 12.994500 -0.242716 -4.980390 88.690900 4.328420 -73.154400 -5.348130 -0.000001 -0.000004 -62.007500 38.196100 -19.803000 -24.328900 0.000322 -0.000009 2.232230 5.719440 -21.368800 -22.291500 -0.000108 -0.000004 7.038160 5.371180 -2.023560 -2.192480 -6.469440 -0.000000 -175.129000 -7.883030 -1.504100 39.081100 -0.000007 -0.000012 -0.113973 0.263762 23.369600 40.985400 -0.000006 -0.000013 -0.208084 4.000840 -66.892300 11.754300 -0.000000 0.000003 -0.000067 -0.000733 -16.605900 -2.192510 6.469440 -0.000001 178.922000 16.204800 -178.190000 -39.081100 -0.002282 -0.040193 -0.066361 0.197371 19.446100 -40.985400 0.000008 0.000006 2.388710 8.258720 -66.318600 -11.754300 -0.000006 -0.000006 -0.007909 -0.087287 -20.127400
0.000000 0.000000 0.000000 0.000000 0.000000 -0.000000 -0.709741 92.183700 0.003707 88.110000 0.080337 5.231710 15.735700 0.000005 -0.000001 85.367400 85.060900 -85.062500 8.984550 -0.406207 -0.000000 2.082410 -0.812412 0.623933 16.377300 -0.000001 -0.000001 2.969530 -2.717160 0.227260 6.456720 -0.000001 -0.000000 6.811370 -3.295580 0.226957 12.994200 -0.242716 4.980390 -89.495100 -1.536770 -71.809700 5.348090 -0.000007 -0.000001 -62.529000 31.761700 -22.249500 24.328600 0.000019 0.000005 2.877180 6.952850 -22.547000 22.291600 -0.000001 0.000005 6.616850 5.382370 -2.375470 12.994500 -0.242716 -4.980390 88.850000 3.749760 -72.936400 -5.348130 -0.000001 -0.000004 -58.875500 34.573600 -22.981500 -24.328900 0.000322 -0.000009 2.519140 5.740270 -23.753100 -22.291500 -0.000108 -0.000004 6.593500 5.375300 -2.151350 -2.192480 -6.469440 -0.000000 -175.130000 -7.912320 -1.505230 39.081100 -0.000007 -0.000012 -0.114241 0.263260 23.458300 40.985400 -0.000006 -0.000013 -0.176479 3.989230 -66.870500 11.754300 -0.000000 0.000003 -0.000057 -0.000635 -16.602200 -2.192510 6.469440 -0.000001 178.903000 16.121200 -178.179000 -39.081100 -0.002282 -0.040193 -0.067856 0.200964 19.503400 -40.985400 0.000008 0.000006 2.274940 8.245120 -66.255000 -11.754300 -0.000006 -0.000006 -0.008119 -0.089000 -20.197400
0.000000 0.000000 0.000000 0.000000 0.000000 -0.000000 -0.682315 92.191800 -0.138742 88.125100 0.083179 5.357210 15.735700 0.000005 -0.000001 84.994700 85.092700 -84.731600 8.984550 -0.406207 -0.000000 2.013430 -0.868937 0.541017 16.377300 -0.000001 -0.000001 3.313530 -2.749730 0.216722 6.456720 -0.000001 -0.000000 7.120980 -3.361100 0.545227 12.994200 -0.242716 4.980390 -89.375000 -1.897280 -71.764100 5.348090 -0.000007 -0.000001 -59.266300 25.098500 -26.277300 24.328600 0.000019 0.000005 3.106220 7.370310 -22.930000 22.291600 -0.000001 0.000005 7.783380 5.361470 -1.727560 12.994500 -0.242716 -4.980390 88.974300 3.282980 -72.638600 -5.348130 -0.000001 -0.000004 -54.785000 29.417700 -27.285300 -24.328900 0.000322 -0.000009 2.785520 5.718200 -26.035200 -22.291500 -0.000108 -0.000004 7.607640 5.372510 -2.064130 -2.192480 -6.469440 -0.000000 -175.151000 -7.957730 -1.490090 39.081100 -0.000007 -0.000012 -0.113413 0.261099 23.478600 40.985400 -0.000006 -0.000013 -0.140222 4.033390 -66.782400 11.754300 -0.000000 0.000003 -0.000064 -0.000701 -16.604700 -2.192510 6.469440 -0.000001 178.858000 16.054900 -178.172000 -39.081100 -0.002282 -0.040193 -0.071096 0.209864 19.524600 -40.985400 0.000008 0.000006 2.072150 8.198800 -66.123000 -11.754300 -0.000006 -0.000006 -0.007598 -0.084717 -20.022400
